<svg xmlns="http://www.w3.org/2000/svg" width="140" height="27" viewBox="0 0 140 27">
    <path fill="#FFF" fill-rule="evenodd" d="M106.15.267h-7.512v6.27h-12.7v7.36h4.687v12.34h8.03V8.067h7.494v-7.8zm10.674 14.351c-2.592-1.393-5.074-1.052-4.88-2.377.218-1.514 3.338-.358 5.724 1.036l2.183-5.282c-2.922-1.699-5.004-2.089-6.999-2.182-2.499-.117-5.092.851-6.488 2.09-2.254 2.002-2.782 5.216-1.43 7.773 1.673 3.163 5.34 3.158 6.593 3.771.793.39.708 1.405-.152 1.675-2.098.664-6.28-2.025-6.28-2.025l-2.252 5.237c2.88 1.665 5.24 2.64 8.57 2.64 9.802 0 10.381-9.9 5.411-12.356zM21.48 6.538h-9.138l-4.275 9.605V6.537H0v19.701h8.067v-10.01l4.502 10.01h9.223l-4.888-10.052 4.577-9.649h-.001zm110.536 0V18.9h-.012c-.017.577-.487 1.04-1.062 1.04-.574 0-1.043-.463-1.063-1.04h-.012V6.537h-7.979v12.326c0 5.396 3.582 8.137 9.015 8.137 5.433 0 9.097-2.636 9.097-8.137V6.537h-7.987.003zM31.041 19.394c-1.626 0-2.945-1.344-2.945-3.003 0-1.657 1.319-3 2.945-3 1.627 0 2.946 1.343 2.946 3 0 1.659-1.32 3.003-2.946 3.003zm0-13.611c-5.747 0-10.406 4.75-10.406 10.608 0 5.86 4.66 10.608 10.406 10.608 5.75 0 10.408-4.749 10.408-10.608 0-5.858-4.659-10.608-10.408-10.608zm42.434.753l-6.303 18.49-2.75-18.49h-7.29L54.68 14.43l-2.456-7.893h-7.288l-2.93 19.701h7.246l1.054-7.477 2.031 7.477h4.684l2.032-7.477 1.054 7.477H75.11l2.377-9.288 2.381 9.288h8.352l-6.718-19.7h-8.027z"/>
</svg>
